<?xml version="1.0" standalone="no"?>
<!DOCTYPE svg PUBLIC "-//W3C//DTD SVG 20010904//EN"
 "http://www.w3.org/TR/2001/REC-SVG-20010904/DTD/svg10.dtd">
<svg version="1.0" xmlns="http://www.w3.org/2000/svg"
 width="1280.000000pt" height="1280.000000pt" viewBox="0 0 1280.000000 1280.000000"
 preserveAspectRatio="xMidYMid meet">
<g transform="translate(0.000000,1280.000000) scale(0.100000,-0.100000)"
fill="#000000" stroke="none">
<path d="M6065 11744 c-22 -2 -96 -9 -165 -15 -1041 -91 -2063 -510 -2884
-1181 -487 -398 -882 -856 -1219 -1413 -100 -165 -298 -566 -373 -755 -187
-475 -297 -931 -356 -1485 -17 -162 -17 -828 0 -990 74 -689 230 -1251 509
-1825 115 -238 204 -396 341 -605 848 -1296 2201 -2158 3727 -2374 287 -41
374 -46 755 -46 381 0 468 5 755 46 1730 245 3236 1326 4024 2889 307 607 475
1189 553 1915 17 161 18 828 0 990 -74 689 -230 1250 -509 1825 -115 239 -204
396 -341 605 -470 718 -1080 1293 -1827 1725 -164 95 -508 260 -695 333 -449
177 -888 284 -1406 343 -130 15 -782 28 -889 18z m70 -944 c15 -6 9 -9 -25 -9
-34 0 -40 3 -25 9 11 5 22 9 25 9 3 0 14 -4 25 -9z m167 -2 c-47 -6 -84 -5
-100 1 -21 7 -3 9 73 9 l100 -1 -73 -9z m296 1 c-16 -6 -53 -7 -100 -1 l-73 9
100 1 c76 0 94 -2 73 -9z m117 1 c15 -6 9 -9 -25 -9 -34 0 -40 3 -25 9 11 5
22 9 25 9 3 0 14 -4 25 -9z m-670 -9 c-6 -5 -66 -14 -135 -21 -540 -49 -1179
-255 -1675 -539 -1046 -600 -1796 -1577 -2094 -2731 -39 -148 -83 -369 -96
-475 -3 -27 -8 -61 -10 -75 -3 -14 -7 -61 -11 -105 -3 -44 -10 -84 -15 -89
-11 -13 -12 -16 6 129 65 549 205 1027 434 1482 227 454 566 911 916 1237 694
646 1498 1033 2420 1165 204 30 274 35 260 22z m970 -22 c1533 -216 2835
-1213 3445 -2640 169 -394 270 -780 325 -1244 18 -145 17 -142 6 -129 -5 5
-12 47 -16 94 -3 47 -8 92 -10 100 -2 8 -7 40 -10 70 -18 163 -97 513 -165
725 -79 248 -242 616 -371 840 -591 1025 -1568 1774 -2699 2069 -240 63 -434
99 -630 117 -69 6 -129 15 -135 21 -12 11 61 5 260 -23z m-601 -671 c5 -32 15
-305 36 -990 54 -1769 60 -1926 71 -1906 14 25 55 211 78 348 29 184 48 342
76 650 13 151 30 327 35 390 71 757 153 1102 313 1315 97 129 232 187 387 165
297 -42 1026 -397 1223 -596 212 -214 138 -510 -235 -946 -103 -120 -442 -460
-827 -829 -129 -123 -288 -282 -354 -354 -122 -132 -287 -332 -287 -348 0 -12
-44 -44 1075 792 1168 873 1274 951 1292 951 36 0 25 -11 -625 -562 -1020
-867 -1577 -1341 -1592 -1355 -13 -13 -12 -14 10 -8 52 14 295 140 457 237 92
55 330 207 528 338 674 444 916 582 1171 666 267 87 449 63 578 -76 66 -72 98
-137 164 -330 122 -359 199 -772 190 -1019 -4 -105 -7 -122 -36 -183 -40 -82
-108 -146 -206 -192 -147 -69 -314 -91 -621 -83 -232 7 -378 22 -975 102 -223
30 -470 61 -550 70 -172 19 -620 32 -605 18 11 -11 122 -40 1459 -389 1264
-330 1376 -360 1376 -375 0 -22 -45 -14 -1210 215 -512 101 -1484 290 -1650
322 -53 10 -30 -7 90 -67 181 -90 378 -163 945 -350 605 -200 823 -279 1023
-375 432 -205 603 -431 524 -691 -61 -199 -426 -695 -710 -964 -132 -125 -219
-174 -330 -185 -157 -17 -357 96 -536 303 -172 198 -300 390 -651 973 -147
245 -306 503 -352 573 -121 184 -323 447 -323 420 0 -11 186 -432 767 -1743
382 -861 419 -947 408 -958 -14 -13 -46 46 -435 793 -589 1134 -933 1791 -942
1800 -28 28 50 -292 132 -536 32 -97 128 -362 214 -590 303 -809 377 -1075
379 -1354 1 -130 -12 -200 -49 -281 -98 -209 -300 -269 -914 -269 -419 0 -619
26 -752 97 -97 52 -170 152 -199 274 -19 80 -14 284 9 414 46 252 119 480 359
1120 85 228 181 495 214 592 81 245 159 561 131 533 -11 -11 -154 -284 -802
-1530 -249 -478 -477 -914 -507 -967 -48 -88 -73 -117 -73 -88 0 16 128 311
450 1035 498 1120 730 1647 730 1658 0 27 -201 -235 -323 -420 -47 -70 -205
-328 -352 -573 -382 -635 -542 -867 -726 -1051 -149 -149 -287 -222 -424 -223
-131 -2 -218 42 -367 183 -284 269 -649 765 -710 964 -79 260 92 486 524 691
200 96 418 175 1023 375 567 187 764 260 945 350 120 60 143 77 90 67 -181
-35 -1211 -235 -1800 -351 -945 -185 -998 -195 -1039 -195 -109 0 -6 29 1339
380 1360 355 1464 382 1475 393 15 14 -433 1 -605 -18 -80 -9 -329 -41 -555
-71 -586 -78 -733 -94 -970 -101 -481 -14 -727 68 -827 275 -29 60 -33 78 -36
176 -10 252 67 664 190 1026 66 193 98 258 164 330 129 139 311 163 578 76
255 -84 497 -222 1171 -666 415 -274 642 -412 828 -504 143 -70 193 -89 167
-64 -17 17 -651 557 -1460 1243 -777 659 -794 675 -757 675 18 0 175 -116
1092 -802 1143 -854 1269 -948 1273 -943 5 4 -59 91 -127 173 -110 132 -288
317 -512 531 -740 708 -962 952 -1093 1201 -122 232 -112 429 31 574 194 197
927 554 1223 596 155 22 290 -36 387 -165 160 -213 241 -551 312 -1315 6 -63
23 -239 36 -390 29 -319 48 -476 76 -650 23 -138 64 -323 78 -348 11 -20 17
151 71 1903 21 697 31 981 36 1003 7 32 22 27 28 -10z m-4405 -3405 c0 -36 -2
-43 -9 -27 -7 18 -3 74 6 74 2 0 4 -21 3 -47z m8791 -26 c-7 -17 -9 -10 -9 28
1 43 2 46 9 22 5 -16 5 -38 0 -50z m-8799 -170 l-8 -82 -1 105 c-1 74 2 98 9
82 5 -14 5 -56 0 -105z m8808 16 l-2 -108 -8 80 c-7 72 -4 135 7 135 2 0 3
-48 3 -107z m0 -230 c0 -74 -3 -101 -9 -86 -8 20 -2 193 6 193 2 0 4 -48 3
-107z m-8808 -85 c-7 -16 -10 8 -9 82 l1 105 8 -82 c5 -49 5 -91 0 -105z m8
-95 c-1 -42 -2 -44 -9 -21 -7 25 -3 68 6 68 2 0 4 -21 3 -47z m8792 -11 c-9
-25 -9 -24 -10 18 0 36 2 41 10 27 7 -12 7 -27 0 -45z m-8776 -142 c3 -47 8
-92 10 -100 2 -8 7 -37 10 -64 18 -166 86 -475 152 -686 447 -1446 1623 -2573
3083 -2954 140 -36 284 -67 405 -86 39 -6 106 -17 150 -25 l80 -14 -85 5
c-104 7 -422 70 -601 119 -1393 384 -2522 1438 -2993 2795 -114 328 -177 604
-221 975 -18 145 -17 142 -6 130 5 -6 12 -48 16 -95z m8761 -31 c-87 -731
-308 -1347 -701 -1944 -633 -964 -1652 -1662 -2760 -1889 -224 -46 -280 -55
-360 -60 l-80 -5 80 14 c44 8 112 19 150 25 496 78 1029 268 1475 525 687 395
1262 978 1651 1670 190 340 343 729 433 1105 37 154 72 339 82 430 3 30 7 57
9 60 2 4 7 46 10 95 7 86 12 111 21 102 2 -2 -2 -60 -10 -128z m-4737 -3905
c2 -2 2 -6 -1 -9 -8 -8 -118 7 -113 15 4 7 106 1 114 -6z m816 6 c3 -6 -4 -10
-17 -10 -13 0 -40 -3 -60 -6 -24 -4 -38 -3 -38 4 0 6 21 13 48 15 26 2 50 4
54 5 4 1 10 -2 13 -8z m-732 -20 c-14 -6 -32 -6 -45 0 -19 7 -15 9 22 9 37 0
41 -2 23 -9z m236 -6 c2 -2 -40 -4 -95 -3 -67 0 -92 3 -79 9 18 8 164 3 174
-6z m236 6 c13 -5 -16 -8 -80 -8 -81 1 -90 2 -50 8 72 10 107 10 130 0z m108
0 c-14 -6 -32 -6 -45 0 -19 7 -15 9 22 9 37 0 41 -2 23 -9z"/>
<path d="M6325 7099 c-156 -15 -342 -107 -443 -219 -51 -57 -115 -164 -143
-240 -98 -269 -25 -565 185 -758 31 -28 56 -55 56 -61 0 -6 7 -11 16 -11 15 0
146 -63 171 -83 7 -5 30 -11 50 -13 21 -2 71 -7 111 -12 39 -4 105 -4 145 0
39 5 89 10 110 12 20 2 43 8 50 14 22 18 156 82 172 82 8 0 15 7 15 15 0 8 12
22 27 32 46 31 151 163 187 237 30 61 53 145 69 249 9 59 -13 217 -42 297 -27
74 -92 182 -144 240 -93 105 -283 203 -416 216 -31 3 -67 6 -81 8 -14 1 -56
-1 -95 -5z m-379 -246 c-10 -10 -19 5 -10 18 6 11 8 11 12 0 2 -7 1 -15 -2
-18z m934 13 c0 -3 -4 -8 -10 -11 -5 -3 -10 -1 -10 4 0 6 5 11 10 11 6 0 10
-2 10 -4z m-1000 -169 c0 -19 -10 -27 -26 -20 -21 8 -17 33 6 33 11 0 20 -6
20 -13z m1080 4 c0 -5 -6 -14 -14 -20 -16 -13 -32 2 -21 19 8 12 35 13 35 1z
m-1105 -591 c10 -16 -16 -43 -28 -31 -11 11 -2 41 12 41 5 0 13 -5 16 -10z
m1123 -13 c2 -10 -3 -17 -12 -17 -18 0 -29 16 -21 31 9 14 29 6 33 -14z m-958
-91 c0 -11 -19 -15 -25 -6 -3 5 1 10 9 10 9 0 16 -2 16 -4z m790 -6 c0 -5 -4
-10 -9 -10 -6 0 -13 5 -16 10 -3 6 1 10 9 10 9 0 16 -4 16 -10z m-868 -72 c-7
-7 -12 -8 -12 -2 0 14 12 26 19 19 2 -3 -1 -11 -7 -17z m928 2 c0 -5 -2 -10
-4 -10 -3 0 -8 5 -11 10 -3 6 -1 10 4 10 6 0 11 -4 11 -10z"/>
</g>
</svg>
